#!OML:ASF E:\Mandelcareful walks\Project 1\Capture day 1\Session 1\Subject1.ASF
:FULLY-SPECIFIED
:DEGREES
888
root -2.20946 12.8445 -0.929902 29.0597 32.7981 13.7604
lowerback 43.0441 2.75186 -4.64838
upperback 9.53857 4.19745 14.0525
thorax -11.8352 2.2394 16.4122
lowerneck -18.8544 -16.1763 -15.1086
upperneck 17.355 -21.7786 16.3633
head 12.4457 -9.21258 4.33419
rclavicle -7.63333e-014 4.45278e-014
rhumerus 27.0741 -13.1944 -66.1154
rradius 53.9372
rwrist -59.7866
rhand -15.9299 -43.8096
rfingers 7.12502
rthumb 10.2678 -73.539
lclavicle -7.63333e-014 4.45278e-014
lhumerus -18.9218 -29.776 79.8778
lradius 64.9568
lwrist 32.4099
lhand -28.2102 -17.3921
lfingers 7.12502
lthumb -1.58893 12.5817
rfemur -87.2968 -7.58236 1.75805
rtibia 90.1627
rfoot -18.4844 21.8802
rtoes 8.93024
lfemur -55.9562 58.5714 -29.1086
ltibia 89.1464
lfoot -32.8761 19.1517
ltoes -18.2692
889
root -2.11446 12.8438 -0.976286 28.991 32.8434 13.7444
lowerback 42.5763 1.95518 -3.68678
upperback 9.50447 3.59138 13.8853
thorax -11.457 1.92247 15.9483
lowerneck -18.6854 -16.2372 -15.5232
upperneck 17.3054 -21.8739 16.7721
head 12.5291 -9.24949 4.52561
rclavicle -4.77083e-014 -1.47896e-013
rhumerus 27.5015 -13.4206 -66.6227
rradius 53.3172
rwrist -59.4492
rhand -15.6545 -43.9186
rfingers 7.12502
rthumb 10.5334 -73.6346
lclavicle -4.77083e-014 -1.47896e-013
lhumerus -18.9301 -29.5722 79.9425
lradius 65.2085
lwrist 33.1111
lhand -28.7637 -17.3459
lfingers 7.12502
lthumb -2.12349 12.6233
rfemur -87.0246 -8.45145 1.6652
rtibia 90.0018
rfoot -18.4565 22.6481
rtoes 8.47787
lfemur -55.7804 57.8862 -29.4718
ltibia 89.4177
lfoot -33.9501 19.5999
ltoes -17.9397
890
root -2.1207 12.8039 -0.998177 28.8669 32.2279 13.3905
lowerback 42.31 1.99487 -3.56291
upperback 9.46218 3.58699 13.4689
thorax -11.342 1.89851 15.3636
lowerneck -18.4898 -16.3086 -15.2393
upperneck 17.1383 -22.2194 17.3932
head 12.5578 -9.33959 4.63583
rclavicle -3.49861e-014 -3.65764e-014
rhumerus 27.5763 -14.2296 -67.7761
rradius 52.903
rwrist -58.9911
rhand -15.0322 -43.7162
rfingers 7.12502
rthumb 11.1337 -73.4008
lclavicle -3.49861e-014 -3.65764e-014
lhumerus -18.7542 -30.4628 79.3083
lradius 65.4793
lwrist 32.7127
lhand -31.6592 -16.2058
lfingers 7.12502
lthumb -4.91963 13.717
rfemur -87.7598 -7.93558 1.82369
rtibia 90.2
rfoot -18.2627 22.6478
rtoes 8.22239
lfemur -56.3738 58.6885 -29.6643
ltibia 89.8881
lfoot -33.941 19.6272
ltoes -18.6181
891
root -2.11476 12.7728 -1.0215 28.6643 31.6641 13.0528
lowerback 42.3601 1.39279 -1.81968
upperback 9.05863 3.27289 11.8661
thorax -11.2425 1.67646 12.6494
lowerneck -18.0464 -16.4048 -13.7497
upperneck 16.795 -23.0279 18.4515
head 12.4802 -9.54378 4.633
rclavicle 0 -1.74931e-014
rhumerus 27.1344 -16.2021 -70.1981
rradius 52.6501
rwrist -58.4084
rhand -14.2409 -43.514
rfingers 7.12502
rthumb 11.8968 -73.156
lclavicle 0 -1.74931e-014
lhumerus -18.026 -32.5177 76.903
lradius 65.71
lwrist 33.2156
lhand -30.0108 -16.1279
lfingers 7.12502
lthumb -3.32789 13.8258
rfemur -88.2463 -7.50654 1.93155
rtibia 90.3518
rfoot -18.1273 22.7503
rtoes 7.86889
lfemur -56.5415 59.333 -29.5611
ltibia 90.4071
lfoot -34.4238 19.0645
ltoes -17.5973
892
root -2.10349 12.7532 -1.04837 28.6229 31.2378 12.8628
lowerback 42.2453 1.4392 -2.4109
upperback 9.09217 3.14651 12.267
thorax -11.2322 1.63797 13.5223
lowerneck -18.1908 -16.3526 -14.2102
upperneck 17.0439 -22.8199 18.2768
head 12.5957 -9.47501 4.68112
rclavicle -1.27222e-014 9.85972e-014
rhumerus 27.6103 -15.3029 -69.8714
rradius 52.3024
rwrist -58.5301
rhand -14.3915 -43.4734
rfingers 7.12502
rthumb 11.7516 -73.1238
lclavicle -1.27222e-014 9.85972e-014
lhumerus -18.3938 -31.8692 77.6425
lradius 65.8972
lwrist 33.4075
lhand -31.3799 -15.6318
lfingers 7.12502
lthumb -4.65002 14.2972
rfemur -88.6484 -7.16375 1.85284
rtibia 90.4685
rfoot -18.1235 22.7309
rtoes 7.41876
lfemur -56.6711 59.6002 -29.5313
ltibia 90.8974
lfoot -35.2116 18.0678
ltoes -14.8183
893
root -2.09886 12.7314 -1.07821 28.7604 30.7746 12.696
lowerback 41.8193 1.59901 -2.5567
upperback 9.09947 3.26596 12.2892
thorax -11.2702 1.70166 13.5273
lowerneck -18.0597 -16.5176 -13.8364
upperneck 17.0795 -23.1589 18.2314
head 12.5896 -9.61147 4.53469
rclavicle -2.54444e-014 -1.74931e-014
rhumerus 27.399 -15.2729 -69.467
rradius 52.1748
rwrist -58.8178
rhand -15.4748 -43.5437
rfingers 7.12502
rthumb 10.7068 -73.2509
lclavicle -2.54444e-014 -1.74931e-014
lhumerus -18.4115 -32.5943 77.7504
lradius 66.1935
lwrist 33.8855
lhand -32.0423 -15.0222
lfingers 7.12502
lthumb -5.28957 14.8918
rfemur -89.2873 -6.75021 1.70493
rtibia 90.5789
rfoot -17.9977 22.5688
rtoes 7.46344
lfemur -57.5808 59.844 -30.1597
ltibia 91.327
lfoot -35.2934 18.2381
ltoes -14.8029
894
root -2.037 12.7324 -1.10263 28.3489 30.314 12.5556
lowerback 41.9539 1.37911 -2.18085
upperback 9.06749 3.1349 12.2291
thorax -11.1474 1.62047 13.3528
lowerneck -18.1284 -16.5723 -13.8574
upperneck 17.1932 -23.2569 18.2689
head 12.6744 -9.64018 4.52354
rclavicle 1.27222e-014 3.49861e-014
rhumerus 27.9163 -15.4193 -69.3546
rradius 51.3808
rwrist -58.4035
rhand -15.6166 -43.5675
rfingers 7.12502
rthumb 10.57 -73.2817
lclavicle 1.27222e-014 3.49861e-014
lhumerus -18.4323 -32.2879 78.2712
lradius 66.1063
lwrist 34.2856
lhand -30.0695 -15.8333
lfingers 7.12502
lthumb -3.38453 14.1196
rfemur -88.9175 -6.72298 1.52162
rtibia 90.512
rfoot -17.9174 23.115
rtoes 7.92378
lfemur -56.8705 59.9449 -29.9845
ltibia 91.4467
lfoot -35.6356 18.8372
ltoes -15.7171
895
root -1.9998 12.7254 -1.12442 28.0419 29.836 12.4659
lowerback 42.0382 1.35409 -2.13561
upperback 9.11977 3.13053 12.3136
thorax -11.1217 1.61252 13.4292
lowerneck -18.1251 -16.5893 -14.1195
upperneck 17.1668 -23.3104 18.6396
head 12.7743 -9.64233 4.68106
rclavicle -3.49861e-014 -8.42847e-014
rhumerus 29.3802 -16.7965 -70.4117
rradius 49.66
rwrist -56.3611
rhand -14.7481 -43.2705
rfingers 7.12502
rthumb 11.4077 -72.9402
lclavicle -3.49861e-014 -8.42847e-014
lhumerus -18.4911 -32.4829 79.0269
lradius 66.0665
lwrist 33.8971
lhand -30.2376 -15.5939
lfingers 7.12502
lthumb -3.54693 14.3564
rfemur -88.815 -6.67088 1.44461
rtibia 90.5101
rfoot -17.6748 23.6785
rtoes 8.3927
lfemur -56.2716 60.1339 -29.7625
ltibia 91.6103
lfoot -36.1141 18.8166
ltoes -14.9317
896
root -1.92553 12.7193 -1.152 28.1286 28.5392 13.8355
lowerback 42.0759 1.51874 -3.08545
upperback 9.24779 2.85307 11.93
thorax -10.9171 1.48833 13.6363
lowerneck -18.1374 -16.6586 -14.1706
upperneck 17.1075 -23.4422 18.8498
head 12.8226 -9.68357 4.72897
rclavicle 1.01778e-013 -1.145e-013
rhumerus 29.9674 -17.3083 -70.0665
rradius 48.8398
rwrist -55.9884
rhand -14.6309 -43.1297
rfingers 7.12502
rthumb 11.5208 -72.7931
lclavicle 1.01778e-013 -1.145e-013
lhumerus -18.5515 -32.941 79.6497
lradius 66.2442
lwrist 33.9267
lhand -30.3949 -15.4994
lfingers 7.12502
lthumb -3.69881 14.4483
rfemur -88.5039 -7.22661 -0.126359
rtibia 90.5142
rfoot -17.1281 25.0365
rtoes 9.18732
lfemur -54.3661 60.324 -30.5941
ltibia 91.5374
lfoot -37.176 18.8433
ltoes -13.9585
897
root -1.87782 12.7145 -1.17935 27.8206 28.1688 13.5339
lowerback 42.069 1.10092 -2.22276
upperback 9.2399 2.62954 11.581
thorax -10.7798 1.35493 12.8395
lowerneck -18.2647 -16.6885 -13.7311
upperneck 17.1274 -23.6436 19.0213
head 12.8654 -9.71817 4.6717
rclavicle -2.22639e-014 3.81667e-014
rhumerus 30.6027 -17.9408 -70.5014
rradius 47.8821
rwrist -55.4962
rhand -14.6873 -43.0214
rfingers 7.12502
rthumb 11.4663 -72.6878
lclavicle -2.22639e-014 3.81667e-014
lhumerus -18.5823 -33.6606 79.5018
lradius 66.5401
lwrist 33.7832
lhand -30.4179 -15.3665
lfingers 7.12502
lthumb -3.72102 14.5808
rfemur -88.4969 -7.33485 0.114639
rtibia 90.3887
rfoot -16.8059 25.5558
rtoes 9.99211
lfemur -53.9186 60.2922 -30.2782
ltibia 91.7908
lfoot -37.9489 18.5025
ltoes -11.4233
898
root -1.85634 12.7133 -1.20184 27.3815 28.2631 12.1667
lowerback 42.0173 0.792266 -1.045
upperback 9.12935 2.78352 11.8551
thorax -10.897 1.40479 12.436
lowerneck -18.2166 -16.742 -13.6567
upperneck 17.1671 -23.7537 19.0243
head 12.8828 -9.76207 4.63741
rclavicle 3.18055e-015 8.26944e-014
rhumerus 31.3122 -18.4089 -70.7884
rradius 46.8355
rwrist -54.7527
rhand -14.5989 -42.8579
rfingers 7.12502
rthumb 11.5516 -72.5195
lclavicle 3.18055e-015 8.26944e-014
lhumerus -18.83 -34.0405 80.0666
lradius 66.6446
lwrist 33.4685
lhand -30.0654 -15.7106
lfingers 7.12502
lthumb -3.38057 14.2423
rfemur -88.8103 -6.95127 1.4163
rtibia 90.1663
rfoot -16.4524 25.5937
rtoes 11.0699
lfemur -54.953 60.2784 -29.673
ltibia 92.1853
lfoot -37.8734 18.984
ltoes -10.5701
899
root -1.8348 12.7139 -1.2249 27.1661 27.9991 11.4548
lowerback 41.9933 0.740264 -0.64717
upperback 9.04154 2.92795 12.1249
thorax -11.0343 1.46675 12.4686
lowerneck -18.0242 -16.831 -13.7677
upperneck 17.1487 -23.8449 18.9525
head 12.8569 -9.82986 4.61362
rclavicle 2.22639e-014 4.13472e-014
rhumerus 31.9938 -18.8912 -70.9586
rradius 45.8464
rwrist -54.1945
rhand -14.2073 -42.9975
rfingers 7.12502
rthumb 11.9292 -72.6377
lclavicle 2.22639e-014 4.13472e-014
lhumerus -19.1451 -34.1924 81.0445
lradius 66.604
lwrist 33.0473
lhand -29.5681 -16.4397
lfingers 7.12502
lthumb -2.90037 13.5204
rfemur -89.0974 -6.69837 2.02701
rtibia 89.944
rfoot -15.879 25.9065
rtoes 11.6432
lfemur -56.0486 60.3007 -29.9509
ltibia 92.4508
lfoot -37.1545 20.996
ltoes -13.3338
900
root -1.79605 12.7101 -1.24466 26.9584 27.5254 11.2726
lowerback 41.968 0.622807 -0.681918
upperback 9.10959 2.78693 12.2916
thorax -10.9411 1.39826 12.7506
lowerneck -18.0669 -16.79 -13.9718
upperneck 17.2048 -23.7192 18.8695
head 12.8761 -9.79019 4.64219
rclavicle -9.54166e-015 2.06736e-014
rhumerus 32.8262 -18.829 -71.1252
rradius 44.8793
rwrist -53.6137
rhand -14.2019 -43.1244
rfingers 7.12502
rthumb 11.9344 -72.7642
lclavicle -9.54166e-015 2.06736e-014
lhumerus -19.5048 -34.1858 81.8905
lradius 66.8342
lwrist 32.7045
lhand -29.2882 -16.5877
lfingers 7.12502
lthumb -2.63002 13.3759
rfemur -89.1475 -6.73889 2.16684
rtibia 89.8092
rfoot -15.3874 26.4619
rtoes 11.5472
lfemur -56.0551 60.3147 -30.1199
ltibia 92.6378
lfoot -37.1074 22.1631
ltoes -14.3926
901
root -1.73933 12.7092 -1.25837 26.5336 27.1828 10.9769
lowerback 41.9938 0.337951 -0.410156
upperback 9.24627 2.56713 12.457
thorax -10.7477 1.28151 12.8935
lowerneck -18.0939 -16.7162 -14.3243
upperneck 17.148 -23.5615 19.0511
head 12.9101 -9.72675 4.796
rclavicle -4.77083e-014 -6.36111e-015
rhumerus 33.5539 -18.4552 -71.0824
rradius 44.118
rwrist -53.0694
rhand -14.3376 -43.1008
rfingers 7.12502
rthumb 11.8035 -72.7482
lclavicle -4.77083e-014 -6.36111e-015
lhumerus -19.8279 -34.4066 82.6381
lradius 67.3316
lwrist 32.5672
lhand -29.5968 -16.3078
lfingers 7.12502
lthumb -2.92805 13.6518
rfemur -88.8816 -6.86344 2.44034
rtibia 89.6807
rfoot -15.1065 27.0399
rtoes 11.7314
lfemur -55.1616 60.2708 -29.573
ltibia 92.7492
lfoot -37.8528 22.1683
ltoes -13.0529
902
root -1.73152 12.6912 -1.26971 26.5516 26.6516 10.7109
lowerback 41.5955 0.620069 -0.716332
upperback 9.39047 2.78184 12.6641
thorax -10.6901 1.38588 13.1492
lowerneck -17.808 -16.791 -14.3145
upperneck 16.769 -23.7224 19.4009
head 12.799 -9.80351 4.89067
rclavicle -2.54444e-014 5.88403e-014
rhumerus 33.5813 -18.4925 -70.5581
rradius 43.8802
rwrist -53.2487
rhand -14.2589 -43.1064
rfingers 7.12502
rthumb 11.8794 -72.7494
lclavicle -2.54444e-014 5.88403e-014
lhumerus -19.9311 -35.1451 83.2528
lradius 67.6386
lwrist 32.3431
lhand -29.5473 -16.3316
lfingers 7.12502
lthumb -2.88027 13.6287
rfemur -89.451 -6.53199 2.69858
rtibia 89.7318
rfoot -14.8345 27.0522
rtoes 12.1773
lfemur -55.5227 60.5612 -29.7511
ltibia 92.9694
lfoot -37.9495 22.2529
ltoes -12.375
